Coordinates
version=1
nRows=65
nColumns=12
inDegrees=yes

Units are S.I. units (second, meters, Newtons, ...)
Angles are in degrees

endheader
time	SC_y	SC_z	SC_x	AC_y	AC_z	AC_x	GH_y	GH_z	GH_yy	EL_x	PS_y
       0.0              -29.71          9.616          24.12          64.87          4.184           17.7         -126.7          2.051         -119.8          99.01          94.15
   0.00873              -29.71          9.615          24.12          64.87          4.184           17.7         -126.7           2.06         -119.7          99.02          94.14
   0.01746              -29.71          9.613          24.12          64.87          4.184          17.69         -126.7           2.07         -119.7          99.02          94.13
   0.02619              -29.71          9.612          24.13          64.87          4.184          17.69         -126.7          2.081         -119.7          99.03          94.12
   0.03492               -29.7          9.611          24.13          64.87          4.184          17.68         -126.7          2.092         -119.7          99.03          94.11
   0.04365               -29.7          9.609          24.13          64.87          4.184          17.68         -126.6          2.105         -119.7          99.04           94.1
   0.05238              -29.69          9.607          24.14          64.87          4.184          17.67         -126.6          2.118         -119.7          99.04          94.08
   0.06111              -29.69          9.606          24.14          64.87          4.184          17.67         -126.6          2.132         -119.7          99.05          94.07
   0.06984              -29.69          9.604          24.15          64.87          4.184          17.66         -126.6          2.147         -119.7          99.06          94.05
   0.07857              -29.68          9.602          24.15          64.88          4.184          17.66         -126.6          2.163         -119.7          99.06          94.04
    0.0873              -29.68          9.599          24.16          64.88          4.184          17.65         -126.5           2.18         -119.7          99.07          94.02
   0.09604              -29.67          9.597          24.17          64.88          4.184          17.65         -126.5          2.198         -119.7          99.08           94.0
    0.1048              -29.67          9.594          24.17          64.88          4.184          17.64         -126.5          2.218         -119.7          99.09          93.98
    0.1135              -29.66          9.592          24.18          64.88          4.184          17.63         -126.5           2.24         -119.7          99.09          93.96
    0.1222              -29.65          9.589          24.19          64.88          4.184          17.62         -126.4          2.263         -119.7           99.1          93.94
     0.131              -29.65          9.585           24.2          64.89          4.183          17.61         -126.4          2.289         -119.6          99.12          93.91
    0.1397              -29.64          9.582          24.21          64.89          4.183           17.6         -126.4          2.316         -119.6          99.13          93.89
    0.1484              -29.63          9.578          24.22          64.89          4.183          17.59         -126.3          2.346         -119.6          99.14          93.86
    0.1571              -29.62          9.574          24.23          64.89          4.183          17.58         -126.3          2.379         -119.6          99.15          93.83
    0.1659              -29.61          9.569          24.24          64.89          4.183          17.57         -126.2          2.415         -119.6          99.17          93.79
    0.1746               -29.6          9.564          24.26           64.9          4.183          17.55         -126.2          2.454         -119.6          99.19          93.75
    0.1833              -29.59          9.559          24.27           64.9          4.183          17.54         -126.1          2.497         -119.6          99.21          93.71
    0.1921              -29.57          9.553          24.29           64.9          4.183          17.52         -126.1          2.545         -119.5          99.23          93.66
    0.2008              -29.56          9.546          24.31          64.91          4.183           17.5         -126.0          2.598         -119.5          99.25          93.61
    0.2095              -29.54          9.538          24.33          64.91          4.183          17.48         -125.9          2.657         -119.5          99.27          93.55
    0.2183              -29.52           9.53          24.35          64.92          4.183          17.46         -125.8          2.723         -119.5           99.3          93.49
     0.227               -29.5           9.52          24.38          64.92          4.183          17.43         -125.7          2.796         -119.4          99.33          93.41
    0.2357              -29.48           9.51          24.41          64.93          4.183           17.4         -125.6          2.879         -119.4          99.37          93.33
    0.2445              -29.45          9.498          24.44          64.94          4.183          17.37         -125.5          2.973         -119.3          99.41          93.24
    0.2532              -29.42          9.484          24.48          64.94          4.183          17.33         -125.4          3.079         -119.3          99.45          93.13
    0.2619              -29.39          9.469          24.52          64.95          4.183          17.29         -125.2            3.2         -119.2          99.51          93.01
    0.2706              -29.35          9.451          24.57          64.96          4.183          17.24         -125.0          3.339         -119.2          99.57          92.88
    0.2794               -29.3           9.43          24.63          64.98          4.183          17.18         -124.8            3.5         -119.1          99.63          92.72
    0.2881              -29.25          9.406          24.69          64.99          4.182          17.11         -124.6          3.687         -119.0          99.71          92.53
    0.2968              -29.19          9.378          24.77          65.01          4.182          17.03         -124.3          3.905         -118.9          99.81          92.32
    0.3056              -29.11          9.345          24.86          65.03          4.182          16.94         -123.9          4.163         -118.8          99.92          92.07
    0.3143              -29.02          9.306          24.97          65.05          4.182          16.83         -123.5          4.469         -118.7          100.0          91.76
     0.323              -28.92          9.259          25.09          65.08          4.181           16.7         -123.1          4.835         -118.5          100.2           91.4
    0.3318              -28.79          9.202          25.25          65.11          4.181          16.54         -122.5          5.279         -118.3          100.4          90.96
    0.3405              -28.64          9.133          25.44          65.15          4.181          16.34         -121.8          5.821         -118.1          100.6          90.43
    0.3492              -28.45          9.047          25.68           65.2           4.18           16.1         -120.9           6.49         -117.8          100.9          89.77
    0.3579              -28.21           8.94          25.97          65.26           4.18           15.8         -119.8          7.325         -117.4          101.3          88.95
    0.3667              -27.91          8.806          26.34          65.34          4.179          15.42         -118.4          8.376         -116.9          101.7          87.91
    0.3754              -27.53          8.635          26.81          65.44          4.178          14.94         -116.7          9.712         -116.3          102.3          86.59
    0.3841              -27.04          8.416          27.41          65.57          4.176          14.33         -114.4          11.42         -115.6          103.0           84.9
    0.3929              -26.41          8.135          28.18          65.74          4.175          13.54         -111.5          13.62         -114.6          104.0          82.74
    0.4016              -25.61          7.776          29.17          65.95          4.172          12.53         -107.8          16.42         -113.3          105.2          79.97
    0.4103              -24.61          7.324          30.41          66.22           4.17          11.26         -103.2          19.95         -111.8          106.7           76.5
    0.4191              -23.38          6.774          31.92          66.54          4.166          9.716         -97.58          24.24         -109.8          108.5          72.26
    0.4278              -21.96          6.137          33.67          66.91          4.162          7.925         -91.04          29.22         -107.6          110.6          67.35
    0.4365              -20.43          5.446          35.57          67.32          4.158          5.986         -83.96          34.61         -105.2          113.0          62.03
    0.4453              -18.89          4.756          37.46          67.73          4.154          4.046         -76.88           40.0         -102.8          115.3          56.71
     0.454              -17.47          4.118          39.21           68.1           4.15          2.255         -70.34          44.98         -100.6          117.4           51.8
    0.4627              -16.24          3.568          40.73          68.42          4.146         0.7102          -64.7          49.28         -98.64          119.2          47.56
    0.4714              -15.24          3.116          41.97          68.69          4.144        -0.5578         -60.07           52.8         -97.06          120.7          44.08
    0.4802              -14.44          2.757          42.95           68.9          4.141         -1.566         -56.39          55.61         -95.81          121.9          41.32
    0.4889              -13.81          2.476          43.72          69.07           4.14         -2.356         -53.51           57.8         -94.83          122.9          39.15
    0.4976              -13.32          2.257          44.32           69.2          4.138         -2.971         -51.26          59.51         -94.06          123.6          37.46
    0.5064              -12.94          2.086          44.79           69.3          4.137         -3.452         -49.51          60.85         -93.47          124.2          36.15
    0.5151              -12.64          1.952          45.16          69.38          4.136          -3.83         -48.13           61.9          -93.0          124.6          35.11
    0.5238               -12.4          1.845          45.46          69.44          4.136          -4.13         -47.03          62.73         -92.62          125.0          34.29
    0.5326              -12.21          1.759          45.69          69.49          4.135         -4.371         -46.15           63.4         -92.32          125.3          33.63
    0.5413              -12.06           1.69          45.88          69.53          4.135         -4.566         -45.44          63.94         -92.08          125.5          33.09
      0.55              -11.93          1.633          46.04          69.56          4.134         -4.725         -44.86          64.39         -91.88          125.7          32.65
    0.5588              -11.83          1.586          46.17          69.59          4.134         -4.857         -44.37          64.75         -91.72          125.9          32.29
